{"title":"The Big Wedding 2013 BRRip 480p x264 AAC - VYTO [P2PDL]","uid":8768452,"size":322378525,"categoryP":"video","categoryS":"movies","magnet":"?xt=urn:btih:cad9e0daebe01769c3380660830f22d44ce6c4b4&amp;dn=The+Big+Wedding+2013+BRRip+480p+x264+AAC+-+VYTO+%5BP2PDL%5D&amp;tr=udp%3A%2F%2Ftracker.openbittorrent.com%3A80&amp;tr=udp%3A%2F%2Fopen.demonii.com%3A1337&amp;tr=udp%3A%2F%2Ftracker.coppersurfer.tk%3A6969&amp;tr=udp%3A%2F%2Fexodus.desync.com%3A6969","seeders":2,"leechers":0,"uploader":"ValidusVyto","files":-1,"time":1375390753,"description":"_______ Visit us at our Semi Public Bittorrent Community ________\n  &lt;a href=&quot;\nhttp://p2pdl.com&quot; rel=&quot;nofollow&quot; target=&quot;_NEW&quot;&gt;\nhttp://p2pdl.com&lt;/a&gt;  _____________________________ &lt;a href=&quot; http://p2pdl.com&quot; rel=&quot;nofollow&quot; target=&quot;_NEW&quot;&gt; http://p2pdl.com&lt;/a&gt;\n\n\nThe Big Wedding 2013 BRRip 480p x264 AAC - VYTO\n\n\nGenre: Comedy \nPlot: A long-divorced couple fakes being married as their family unites for a wedding.  \nDirector: Justin Zackham\nStars: Robert De Niro, Katherine Heigl, Diane Keaton.\nRated: R for language, sexual content and brief nudity.\n\nInfo: &lt;a href=&quot;\nhttp://www.imdb.com/title/tt1931435/&quot; rel=&quot;nofollow&quot; target=&quot;_NEW&quot;&gt;\nhttp://www.imdb.com/title/tt1931435/&lt;/a&gt;\n\nTrailer:\n\n\nFormat                         : MPEG-4\nFile size                      : 301 MiB\nDuration                       : 1h 29mn\nOverall bit rate mode          : Variable\nOverall bit rate               : 470 Kbps\nSource                         : 720p.BluRay.DTS.x264-PublicHD\n\nVideo\nFormat                         : AVC\nBit rate                       : 426 Kbps\nWidth                          : 720 pixels\nHeight                         : 304 pixels\nDisplay aspect ratio           : 2.35:1\nFrame rate mode                : Constant\nFrame rate                     : 23.976 fps\nStream size                    : 273 MiB (91%)\nWriting library                : x264 core 130 r2273\n\nAudio\nFormat                         : AAC\nBit rate mode                  : Variable\nBit rate                       : 40.8 Kbps\nChannel(s)                     : 2 channels\nChannel positions              : Front: L R\nSampling rate                  : 48.0 KHz\nStream size                    : 26.2 MiB (9%)\nLanguage                       : English\n\nSubtitle                       : Yes(English)\n &lt;a href=&quot;\nhttp://ultraimg.com/images/MlGI6.png&quot; rel=&quot;nofollow&quot; target=&quot;_NEW&quot;&gt;\nhttp://ultraimg.com/images/MlGI6.png&lt;/a&gt; &lt;a href=&quot;\nhttp://ultraimg.com/images/wtLiR.png&quot; rel=&quot;nofollow&quot; target=&quot;_NEW&quot;&gt;\nhttp://ultraimg.com/images/wtLiR.png&lt;/a&gt; &lt;a href=&quot;\nhttp://ultraimg.com/images/hzUwB.png&quot; rel=&quot;nofollow&quot; target=&quot;_NEW&quot;&gt;\nhttp://ultraimg.com/images/hzUwB.png&lt;/a&gt; &lt;a href=&quot;\nhttp://ultraimg.com/images/2GXtE.png&quot; rel=&quot;nofollow&quot; target=&quot;_NEW&quot;&gt;\nhttp://ultraimg.com/images/2GXtE.png&lt;/a&gt; &lt;a href=&quot;\nhttp://ultraimg.com/images/8gMDI.png&quot; rel=&quot;nofollow&quot; target=&quot;_NEW&quot;&gt;\nhttp://ultraimg.com/images/8gMDI.png&lt;/a&gt; &lt;a href=&quot;\nhttp://ultraimg.com/images/FGlPM.png&quot; rel=&quot;nofollow&quot; target=&quot;_NEW&quot;&gt;\nhttp://ultraimg.com/images/FGlPM.png&lt;/a&gt; &lt;a href=&quot;\nhttp://ultraimg.com/images/toAkm.png&quot; rel=&quot;nofollow&quot; target=&quot;_NEW&quot;&gt;\nhttp://ultraimg.com/images/toAkm.png&lt;/a&gt; &lt;a href=&quot;\nhttp://ultraimg.com/images/5sSUH.png&quot; rel=&quot;nofollow&quot; target=&quot;_NEW&quot;&gt;\nhttp://ultraimg.com/images/5sSUH.png&lt;/a&gt;\n\n----------------------------------------------------------------------------------------------------\n\n\nEncoded using revolutionary 10bit encoding, which enables us to provide you more crispier \nand sharper images at small sizes, just make sure you follow our instructions without a fault.\nRecommend to you to use latest version of VLC player. Install K-Lite Codec Pack or shark007 codecs\nin case of any kind of problem in playback (For non-VLC Media Player users). Alternatively, install\nCore AVC codecs, the fastest decoder that there is coupled with Community Center Codec Pack and play\non Windows Media Player Classic. Check sample to be sure.\nEnjoy!\n\nEncoder Notes:Looking For Early Access To Anything You Can Provide DVDScr, R5, DVDR, BluRay, Direct\nAudio, Music Releases and Seedboxes. We require dedicated servers, so as to do more \nand fast releases of movies.\nIf You Got anything to offer please contact us at &quot;&lt;a class=&quot;__cf_email__&quot; href=&quot;/cdn-cgi/l/email-protection&quot; data-cfemail=&quot;ea9a988daa829f9982c4898587&quot;&gt;[email&amp;#160;protected]&lt;/a&gt;&lt;script cf-hash='f9e31' type=&quot;text/javascript&quot;&gt;\n/* &lt;![CDATA[ */!function(){try{var t=&quot;currentScript&quot;in document?document.currentScript:function(){for(var t=document.getElementsByTagName(&quot;script&quot;),e=t.length;e--;)if(t[e].getAttribute(&quot;cf-hash&quot;))return t[e]}();if(t&amp;&amp;t.previousSibling){var e,r,n,i,c=t.previousSibling,a=c.getAttribute(&quot;data-cfemail&quot;);if(a){for(e=&quot;&quot;,r=parseInt(a.substr(0,2),16),n=2;a.length-n;n+=2)i=parseInt(a.substr(n,2),16)^r,e+=String.fromCharCode(i);e=document.createTextNode(e),c.parentNode.replaceChild(e,c)}}}catch(u){}}();/* ]]&gt; */&lt;/script&gt;&quot;.\n\nFace book Fan Page:  \nSearch P2PDL on FB and join us :P","torrent":{"xt":"urn:btih:cad9e0daebe01769c3380660830f22d44ce6c4b4","amp;dn":"The+Big+Wedding+2013+BRRip+480p+x264+AAC+-+VYTO+%5BP2PDL%5D","amp;tr":["udp%3A%2F%2Ftracker.openbittorrent.com%3A80","udp%3A%2F%2Fopen.demonii.com%3A1337","udp%3A%2F%2Ftracker.coppersurfer.tk%3A6969","udp%3A%2F%2Fexodus.desync.com%3A6969"],"infoHash":"cad9e0daebe01769c3380660830f22d44ce6c4b4","infoHashBuffer":{"type":"Buffer","data":[202,217,224,218,235,224,23,105,195,56,6,96,131,15,34,212,76,230,196,180]},"announce":[],"urlList":[]}}